<?xml version="1.0" encoding="UTF-8"?><svg id="Layer_2" xmlns="http://www.w3.org/2000/svg" viewBox="0 0 1948.44 956.47"><defs><style>.cls-1{fill:#ee4823;}.cls-1,.cls-2,.cls-3,.cls-4{stroke-width:0px;}.cls-2{fill:#4a9a9f;}.cls-3{fill:#f2a020;}.cls-4{fill:#316880;}</style></defs><g id="Layer_1-2"><path class="cls-3" d="M1947.09,288.21C1298.06-32.58,649.03,609,0,288.21V92.6c649.03,320.79,1298.06-320.79,1947.09,0v195.61Z"/><path class="cls-1" d="M1947.09,483.82C1298.06,163.02,649.03,804.61,0,483.82v-195.61c649.03,320.79,1298.06-320.79,1947.09,0v195.61Z"/><path class="cls-2" d="M1947.09,668.55c-649.03-320.79-1298.06,320.79-1947.09,0v-195.61c649.03,320.79,1298.06-320.79,1947.09,0v195.61Z"/><path class="cls-4" d="M1948.44,863.86c-649.03-320.79-1298.06,320.79-1947.09,0v-195.61c649.03,320.79,1298.06-320.79,1947.09,0v195.61Z"/></g></svg>