<?xml version="1.0" encoding="UTF-8"?><svg id="Layer_2" xmlns="http://www.w3.org/2000/svg" viewBox="0 0 1034.67 960.32"><defs><style>.cls-1{fill:#306880;}.cls-1,.cls-2,.cls-3,.cls-4{stroke-width:0px;}.cls-2{fill:#f2a01f;}.cls-3{fill:#ed4823;}.cls-4{fill:#4a999e;}</style></defs><path class="cls-2" d="M874.33,310.81c-238.67-60.44-477.33,89.93-716,29.49-25.96-7.11-47-36.62-47-61.75h0c0-24.89,21.05-46.01,47-47h716c25.96-.99,47,19.98,47,47h0c0,26.79-21.05,39.37-47,32.25Z"/><path class="cls-3" d="M874.33,443.47c-238.67-101.44-477.33,150.95-716,49.5-25.96-10.99-47-46.03-47-71.75,0,0,0,0,0,0,0-25.56,21.05-35.45,47-27.16,238.67,81.3,477.33-120.97,716-39.67,25.96,8.29,47,40.48,47,66.84,0,0,0,0,0,0,0,26.19-21.05,33.24-47,22.25Z"/><path class="cls-4" d="M874.33,591.05c-238.67-81.3-477.33,120.97-716,39.67-25.96-8.29-47-40.48-47-66.84,0,0,0,0,0,0,0-26.19,21.05-33.24,47-22.25,238.67,101.44,477.33-150.95,716-49.5,25.96,10.99,47,46.03,47,71.75,0,0,0,0,0,0,0,25.56-21.05,35.45-47,27.16Z"/><path class="cls-1" d="M874.33,753.56H158.33c-25.96.99-47-19.98-47-47h0c0-26.79,21.05-39.37,47-32.25,238.67,60.44,477.33-89.93,716-29.49,25.96,7.11,47,36.62,47,61.75h0c0,24.89-21.05,46.01-47,47Z"/></svg>